<svg width="54" height="60" viewBox="0 0 54 60" fill="none" xmlns="http://www.w3.org/2000/svg">
    <path d="M27.0001 60C26.5028 60 26.0259 59.8025 25.6743 59.4508C25.3226 59.0992 25.1251 58.6223 25.1251 58.125V53.2762L22.7026 55.7025C22.3505 56.0541 21.8732 56.2514 21.3756 56.251C20.8781 56.2507 20.401 56.0527 20.0495 55.7006C19.6979 55.3486 19.5006 54.8712 19.5009 54.3737C19.5013 53.8761 19.6993 53.3991 20.0513 53.0475L25.1251 47.9738V33.2475L12.3751 40.6088L10.5151 47.5462C10.3858 48.0266 10.071 48.436 9.63986 48.6842C9.20876 48.9325 8.6967 48.9993 8.21633 48.87C7.73595 48.7407 7.32662 48.4259 7.07837 47.9948C6.83012 47.5637 6.76329 47.0516 6.89258 46.5712L7.78133 43.2637L3.58133 45.6862C3.15091 45.931 2.64116 45.9955 2.16333 45.8658C1.6855 45.736 1.27838 45.4226 1.03081 44.9938C0.783244 44.565 0.715327 44.0557 0.841882 43.577C0.968437 43.0983 1.27919 42.6892 1.70633 42.4388L5.90633 40.0162L2.59133 39.1275C2.35347 39.0635 2.13055 38.9532 1.9353 38.8031C1.74005 38.6529 1.57629 38.4657 1.45337 38.2523C1.33044 38.0388 1.25077 37.8032 1.21889 37.559C1.18701 37.3147 1.20356 37.0666 1.26758 36.8288C1.3316 36.5909 1.44184 36.368 1.59201 36.1727C1.74218 35.9775 1.92934 35.8137 2.1428 35.6908C2.35625 35.5679 2.59183 35.4882 2.83608 35.4563C3.08033 35.4244 3.32847 35.441 3.56633 35.505L10.4963 37.3613L23.2501 30L10.5001 22.6388L3.56258 24.495C3.08533 24.6139 2.58045 24.5406 2.15678 24.2908C1.7331 24.041 1.42455 23.6347 1.29764 23.1595C1.17072 22.6843 1.23561 22.1782 1.4783 21.7505C1.721 21.3227 2.12208 21.0073 2.59508 20.8725L5.90633 19.9837L1.70633 17.5613C1.49137 17.439 1.3027 17.2755 1.1512 17.0801C0.999699 16.8846 0.888347 16.6612 0.823559 16.4225C0.758771 16.1839 0.741825 15.9348 0.773697 15.6896C0.80557 15.4444 0.885631 15.2079 1.00927 14.9938C1.13291 14.7796 1.29769 14.592 1.49412 14.4418C1.69054 14.2916 1.91474 14.1818 2.1538 14.1186C2.39286 14.0554 2.64207 14.0401 2.88706 14.0736C3.13206 14.1071 3.36801 14.1887 3.58133 14.3137L7.78133 16.7362L6.89258 13.425C6.82435 13.1857 6.80444 12.9351 6.83403 12.688C6.86361 12.4409 6.94209 12.2022 7.0649 11.9857C7.1877 11.7693 7.35236 11.5794 7.54929 11.4273C7.74622 11.2751 7.97147 11.1637 8.21191 11.0994C8.45236 11.0352 8.70317 11.0195 8.94975 11.0532C9.19632 11.0869 9.43372 11.1694 9.64809 11.2958C9.86247 11.4222 10.0495 11.59 10.1984 11.7895C10.3472 11.9889 10.4549 12.216 10.5151 12.4575L12.3713 19.3913L25.1251 26.7525V12.0262L20.0513 6.9525C19.877 6.77842 19.7387 6.5717 19.6442 6.34416C19.5498 6.11661 19.5011 5.87269 19.5009 5.62633C19.5007 5.37996 19.5491 5.13597 19.6432 4.90829C19.7373 4.68062 19.8754 4.4737 20.0495 4.29938C20.2235 4.12505 20.4303 3.98671 20.6578 3.89227C20.8853 3.79783 21.1293 3.74913 21.3756 3.74896C21.622 3.74878 21.866 3.79714 22.0937 3.89125C22.3213 3.98537 22.5282 4.12342 22.7026 4.2975L25.1251 6.72375V1.875C25.1251 1.37772 25.3226 0.900805 25.6743 0.549175C26.0259 0.197544 26.5028 0 27.0001 0C27.4974 0 27.9743 0.197544 28.3259 0.549175C28.6775 0.900805 28.8751 1.37772 28.8751 1.875V6.72375L31.3013 4.2975C31.6534 3.94592 32.1307 3.74861 32.6283 3.74896C33.1258 3.74931 33.6029 3.9473 33.9545 4.29938C34.306 4.65145 34.5033 5.12877 34.503 5.62633C34.5026 6.12388 34.3047 6.60092 33.9526 6.9525L28.8751 12.0262V26.7525L41.6251 19.3913L43.4851 12.4538C43.6144 11.9734 43.9292 11.564 44.3603 11.3158C44.7914 11.0675 45.3035 11.0007 45.7838 11.13C46.2642 11.2593 46.6735 11.5741 46.9218 12.0052C47.17 12.4363 47.2369 12.9484 47.1076 13.4288L46.2226 16.7362L50.4226 14.3137C50.853 14.069 51.3627 14.0045 51.8406 14.1342C52.3184 14.2639 52.7255 14.5774 52.9731 15.0062C53.2207 15.435 53.2886 15.9443 53.162 16.423C53.0355 16.9017 52.7247 17.3108 52.2976 17.5613L48.0976 19.9837L51.4088 20.8725C51.8892 21.0018 52.2985 21.3166 52.5468 21.7477C52.795 22.1788 52.8619 22.6909 52.7326 23.1712C52.6033 23.6516 52.2885 24.061 51.8574 24.3092C51.4263 24.5575 50.9142 24.6243 50.4338 24.495L43.5038 22.6388L30.7501 30L43.5001 37.3613L50.4338 35.505C50.9142 35.3762 51.4261 35.4435 51.8568 35.6921C52.2876 35.9407 52.6019 36.3503 52.7307 36.8306C52.8595 37.311 52.7922 37.8229 52.5436 38.2536C52.295 38.6844 51.8855 38.9987 51.4051 39.1275L48.0938 40.0162L52.2938 42.4388C52.721 42.6892 53.0317 43.0983 53.1583 43.577C53.2848 44.0557 53.2169 44.565 52.9693 44.9938C52.7218 45.4226 52.3147 45.736 51.8368 45.8658C51.359 45.9955 50.8492 45.931 50.4188 45.6862L46.2188 43.2637L47.1038 46.575C47.1721 46.8143 47.192 47.0649 47.1624 47.312C47.1328 47.5591 47.0543 47.7978 46.9315 48.0143C46.8087 48.2307 46.644 48.4206 46.4471 48.5727C46.2502 48.7249 46.0249 48.8363 45.7845 48.9006C45.5441 48.9648 45.2932 48.9805 45.0467 48.9468C44.8001 48.9131 44.5627 48.8306 44.3483 48.7042C44.1339 48.5778 43.9469 48.41 43.798 48.2105C43.6492 48.0111 43.5415 47.784 43.4813 47.5425L41.6251 40.6088L28.8751 33.2475V47.9738L33.9488 53.0475C34.3009 53.3991 34.4989 53.8761 34.4992 54.3737C34.4996 54.8712 34.3023 55.3486 33.9507 55.7006C33.5991 56.0527 33.1221 56.2507 32.6245 56.251C32.127 56.2514 31.6497 56.0541 31.2976 55.7025L28.8713 53.2762V58.125C28.8713 58.6223 28.6738 59.0992 28.3222 59.4508C27.9705 59.8025 27.4936 60 26.9963 60H27.0001Z" fill="url(#paint0_linear_43_444)"/>
    <defs>
    <linearGradient id="paint0_linear_43_444" x1="26.9912" y1="0" x2="26.9912" y2="60" gradientUnits="userSpaceOnUse">
    <stop stop-color="#2FB8FF"/>
    <stop offset="1" stop-color="#9EECD9" stop-opacity="0.879545"/>
    </linearGradient>
    </defs>
    </svg>
    